<mxfile host="app.diagrams.net" agent="Mozilla/5.0 (Macintosh; Intel Mac OS X 10_15_7) AppleWebKit/537.36 (KHTML, like Gecko) Chrome/126.0.0.0 Safari/537.36" version="24.7.6">
  <diagram id="C5RBs43oDa-KdzZeNtuy" name="Page-1">
    <mxGraphModel dx="1327" dy="839" grid="1" gridSize="10" guides="1" tooltips="1" connect="1" arrows="1" fold="1" page="1" pageScale="1" pageWidth="827" pageHeight="1169" math="0" shadow="0">
      <root>
        <mxCell id="WIyWlLk6GJQsqaUBKTNV-0" />
        <mxCell id="WIyWlLk6GJQsqaUBKTNV-1" parent="WIyWlLk6GJQsqaUBKTNV-0" />
        <mxCell id="uQtyzaT6FwS_6Y9mRP5b-26" style="edgeStyle=orthogonalEdgeStyle;rounded=0;orthogonalLoop=1;jettySize=auto;html=1;exitX=0.5;exitY=1;exitDx=0;exitDy=0;" parent="WIyWlLk6GJQsqaUBKTNV-1" source="uQtyzaT6FwS_6Y9mRP5b-0" target="uQtyzaT6FwS_6Y9mRP5b-1" edge="1">
          <mxGeometry relative="1" as="geometry" />
        </mxCell>
        <mxCell id="uQtyzaT6FwS_6Y9mRP5b-0" value="시작" style="ellipse;whiteSpace=wrap;html=1;" parent="WIyWlLk6GJQsqaUBKTNV-1" vertex="1">
          <mxGeometry x="175" y="20" width="90" height="60" as="geometry" />
        </mxCell>
        <mxCell id="uQtyzaT6FwS_6Y9mRP5b-25" style="edgeStyle=orthogonalEdgeStyle;rounded=0;orthogonalLoop=1;jettySize=auto;html=1;exitX=0.5;exitY=1;exitDx=0;exitDy=0;" parent="WIyWlLk6GJQsqaUBKTNV-1" source="uQtyzaT6FwS_6Y9mRP5b-3" edge="1">
          <mxGeometry relative="1" as="geometry">
            <mxPoint x="220" y="240" as="targetPoint" />
          </mxGeometry>
        </mxCell>
        <mxCell id="uQtyzaT6FwS_6Y9mRP5b-1" value="3 / 5 세트 설정" style="rounded=0;whiteSpace=wrap;html=1;" parent="WIyWlLk6GJQsqaUBKTNV-1" vertex="1">
          <mxGeometry x="160" y="100" width="120" height="40" as="geometry" />
        </mxCell>
        <mxCell id="uQtyzaT6FwS_6Y9mRP5b-20" style="edgeStyle=orthogonalEdgeStyle;rounded=0;orthogonalLoop=1;jettySize=auto;html=1;exitX=0.5;exitY=1;exitDx=0;exitDy=0;entryX=0.5;entryY=0;entryDx=0;entryDy=0;" parent="WIyWlLk6GJQsqaUBKTNV-1" source="uQtyzaT6FwS_6Y9mRP5b-11" target="uQtyzaT6FwS_6Y9mRP5b-12" edge="1">
          <mxGeometry relative="1" as="geometry" />
        </mxCell>
        <mxCell id="uQtyzaT6FwS_6Y9mRP5b-19" style="edgeStyle=orthogonalEdgeStyle;rounded=0;orthogonalLoop=1;jettySize=auto;html=1;exitX=1;exitY=0.5;exitDx=0;exitDy=0;entryX=0;entryY=0.5;entryDx=0;entryDy=0;" parent="WIyWlLk6GJQsqaUBKTNV-1" source="uQtyzaT6FwS_6Y9mRP5b-12" target="uQtyzaT6FwS_6Y9mRP5b-27" edge="1">
          <mxGeometry relative="1" as="geometry">
            <mxPoint x="360" y="500" as="targetPoint" />
          </mxGeometry>
        </mxCell>
        <mxCell id="uQtyzaT6FwS_6Y9mRP5b-62" style="edgeStyle=orthogonalEdgeStyle;rounded=0;orthogonalLoop=1;jettySize=auto;html=1;exitX=0.5;exitY=1;exitDx=0;exitDy=0;entryX=0.5;entryY=0;entryDx=0;entryDy=0;" parent="WIyWlLk6GJQsqaUBKTNV-1" source="uQtyzaT6FwS_6Y9mRP5b-12" target="uQtyzaT6FwS_6Y9mRP5b-41" edge="1">
          <mxGeometry relative="1" as="geometry" />
        </mxCell>
        <mxCell id="uQtyzaT6FwS_6Y9mRP5b-12" value="점수&amp;nbsp;&lt;span style=&quot;background-color: initial;&quot;&gt;듀스&amp;nbsp;&lt;/span&gt;&lt;div&gt;여부&lt;/div&gt;" style="rhombus;whiteSpace=wrap;html=1;" parent="WIyWlLk6GJQsqaUBKTNV-1" vertex="1">
          <mxGeometry x="180" y="330" width="80" height="80" as="geometry" />
        </mxCell>
        <mxCell id="uQtyzaT6FwS_6Y9mRP5b-32" style="edgeStyle=orthogonalEdgeStyle;rounded=0;orthogonalLoop=1;jettySize=auto;html=1;entryX=1;entryY=0.5;entryDx=0;entryDy=0;exitX=1;exitY=0.5;exitDx=0;exitDy=0;" parent="WIyWlLk6GJQsqaUBKTNV-1" source="uQtyzaT6FwS_6Y9mRP5b-27" target="uQtyzaT6FwS_6Y9mRP5b-28" edge="1">
          <mxGeometry relative="1" as="geometry">
            <mxPoint x="430" y="399.9999999999999" as="sourcePoint" />
            <mxPoint x="400" y="515" as="targetPoint" />
            <Array as="points">
              <mxPoint x="470" y="370" />
              <mxPoint x="470" y="460" />
            </Array>
          </mxGeometry>
        </mxCell>
        <mxCell id="uQtyzaT6FwS_6Y9mRP5b-27" value="듀스에서 게임 진행" style="rounded=0;whiteSpace=wrap;html=1;" parent="WIyWlLk6GJQsqaUBKTNV-1" vertex="1">
          <mxGeometry x="310" y="350" width="120" height="40" as="geometry" />
        </mxCell>
        <mxCell id="uQtyzaT6FwS_6Y9mRP5b-42" style="edgeStyle=orthogonalEdgeStyle;rounded=0;orthogonalLoop=1;jettySize=auto;html=1;exitX=0;exitY=0.5;exitDx=0;exitDy=0;entryX=1;entryY=0.5;entryDx=0;entryDy=0;" parent="WIyWlLk6GJQsqaUBKTNV-1" source="uQtyzaT6FwS_6Y9mRP5b-28" target="uQtyzaT6FwS_6Y9mRP5b-41" edge="1">
          <mxGeometry relative="1" as="geometry" />
        </mxCell>
        <mxCell id="uQtyzaT6FwS_6Y9mRP5b-64" value="" style="edgeStyle=orthogonalEdgeStyle;rounded=0;orthogonalLoop=1;jettySize=auto;html=1;" parent="WIyWlLk6GJQsqaUBKTNV-1" source="uQtyzaT6FwS_6Y9mRP5b-28" target="uQtyzaT6FwS_6Y9mRP5b-27" edge="1">
          <mxGeometry relative="1" as="geometry" />
        </mxCell>
        <mxCell id="uQtyzaT6FwS_6Y9mRP5b-28" value="점수&amp;nbsp;&lt;span style=&quot;background-color: initial;&quot;&gt;듀스&amp;nbsp;&lt;/span&gt;&lt;div&gt;여부&lt;/div&gt;" style="rhombus;whiteSpace=wrap;html=1;" parent="WIyWlLk6GJQsqaUBKTNV-1" vertex="1">
          <mxGeometry x="332.5" y="420" width="75" height="80" as="geometry" />
        </mxCell>
        <mxCell id="uQtyzaT6FwS_6Y9mRP5b-35" value="Yes" style="text;html=1;align=center;verticalAlign=middle;whiteSpace=wrap;rounded=0;" parent="WIyWlLk6GJQsqaUBKTNV-1" vertex="1">
          <mxGeometry x="354" y="390" width="60" height="30" as="geometry" />
        </mxCell>
        <mxCell id="uQtyzaT6FwS_6Y9mRP5b-36" value="Yes" style="text;html=1;align=center;verticalAlign=middle;whiteSpace=wrap;rounded=0;" parent="WIyWlLk6GJQsqaUBKTNV-1" vertex="1">
          <mxGeometry x="250" y="370" width="60" height="30" as="geometry" />
        </mxCell>
        <mxCell id="uQtyzaT6FwS_6Y9mRP5b-37" value="No" style="text;html=1;align=center;verticalAlign=middle;whiteSpace=wrap;rounded=0;" parent="WIyWlLk6GJQsqaUBKTNV-1" vertex="1">
          <mxGeometry x="210" y="400" width="60" height="30" as="geometry" />
        </mxCell>
        <mxCell id="uQtyzaT6FwS_6Y9mRP5b-48" style="edgeStyle=orthogonalEdgeStyle;rounded=0;orthogonalLoop=1;jettySize=auto;html=1;exitX=0.5;exitY=1;exitDx=0;exitDy=0;entryX=0.5;entryY=0;entryDx=0;entryDy=0;" parent="WIyWlLk6GJQsqaUBKTNV-1" source="uQtyzaT6FwS_6Y9mRP5b-41" target="uQtyzaT6FwS_6Y9mRP5b-47" edge="1">
          <mxGeometry relative="1" as="geometry" />
        </mxCell>
        <mxCell id="uQtyzaT6FwS_6Y9mRP5b-41" value="게임 종료" style="rounded=0;whiteSpace=wrap;html=1;" parent="WIyWlLk6GJQsqaUBKTNV-1" vertex="1">
          <mxGeometry x="160" y="440" width="120" height="40" as="geometry" />
        </mxCell>
        <mxCell id="uQtyzaT6FwS_6Y9mRP5b-43" value="No" style="text;html=1;align=center;verticalAlign=middle;whiteSpace=wrap;rounded=0;" parent="WIyWlLk6GJQsqaUBKTNV-1" vertex="1">
          <mxGeometry x="210" y="585" width="60" height="30" as="geometry" />
        </mxCell>
        <mxCell id="uQtyzaT6FwS_6Y9mRP5b-49" style="edgeStyle=orthogonalEdgeStyle;rounded=0;orthogonalLoop=1;jettySize=auto;html=1;exitX=0;exitY=0.5;exitDx=0;exitDy=0;entryX=0;entryY=0.5;entryDx=0;entryDy=0;" parent="WIyWlLk6GJQsqaUBKTNV-1" source="uQtyzaT6FwS_6Y9mRP5b-47" target="uQtyzaT6FwS_6Y9mRP5b-11" edge="1">
          <mxGeometry relative="1" as="geometry">
            <mxPoint x="220" y="340" as="targetPoint" />
            <Array as="points">
              <mxPoint x="80" y="545" />
              <mxPoint x="80" y="290" />
            </Array>
          </mxGeometry>
        </mxCell>
        <mxCell id="uQtyzaT6FwS_6Y9mRP5b-53" style="edgeStyle=orthogonalEdgeStyle;rounded=0;orthogonalLoop=1;jettySize=auto;html=1;exitX=0.5;exitY=1;exitDx=0;exitDy=0;entryX=0.5;entryY=0;entryDx=0;entryDy=0;" parent="WIyWlLk6GJQsqaUBKTNV-1" source="uQtyzaT6FwS_6Y9mRP5b-47" target="uQtyzaT6FwS_6Y9mRP5b-52" edge="1">
          <mxGeometry relative="1" as="geometry" />
        </mxCell>
        <mxCell id="uQtyzaT6FwS_6Y9mRP5b-47" value="게임&amp;nbsp;&lt;span style=&quot;background-color: initial;&quot;&gt;듀스&amp;nbsp;&lt;/span&gt;&lt;div&gt;여부&lt;/div&gt;" style="rhombus;whiteSpace=wrap;html=1;" parent="WIyWlLk6GJQsqaUBKTNV-1" vertex="1">
          <mxGeometry x="180" y="505" width="80" height="80" as="geometry" />
        </mxCell>
        <mxCell id="uQtyzaT6FwS_6Y9mRP5b-50" value="No" style="text;html=1;align=center;verticalAlign=middle;whiteSpace=wrap;rounded=0;" parent="WIyWlLk6GJQsqaUBKTNV-1" vertex="1">
          <mxGeometry x="110" y="630" width="60" height="30" as="geometry" />
        </mxCell>
        <mxCell id="uQtyzaT6FwS_6Y9mRP5b-51" value="Yes" style="text;html=1;align=center;verticalAlign=middle;whiteSpace=wrap;rounded=0;" parent="WIyWlLk6GJQsqaUBKTNV-1" vertex="1">
          <mxGeometry x="110" y="510" width="60" height="30" as="geometry" />
        </mxCell>
        <mxCell id="uQtyzaT6FwS_6Y9mRP5b-56" style="edgeStyle=orthogonalEdgeStyle;rounded=0;orthogonalLoop=1;jettySize=auto;html=1;exitX=0.5;exitY=1;exitDx=0;exitDy=0;" parent="WIyWlLk6GJQsqaUBKTNV-1" source="uQtyzaT6FwS_6Y9mRP5b-52" target="uQtyzaT6FwS_6Y9mRP5b-55" edge="1">
          <mxGeometry relative="1" as="geometry" />
        </mxCell>
        <mxCell id="uQtyzaT6FwS_6Y9mRP5b-52" value="세트&amp;nbsp;&lt;span style=&quot;background-color: initial;&quot;&gt;과반&amp;nbsp;&lt;/span&gt;&lt;div&gt;여부&lt;/div&gt;" style="rhombus;whiteSpace=wrap;html=1;" parent="WIyWlLk6GJQsqaUBKTNV-1" vertex="1">
          <mxGeometry x="180" y="620" width="80" height="80" as="geometry" />
        </mxCell>
        <mxCell id="uQtyzaT6FwS_6Y9mRP5b-55" value="끝" style="ellipse;whiteSpace=wrap;html=1;" parent="WIyWlLk6GJQsqaUBKTNV-1" vertex="1">
          <mxGeometry x="160" y="730" width="120" height="80" as="geometry" />
        </mxCell>
        <mxCell id="uQtyzaT6FwS_6Y9mRP5b-57" value="" style="edgeStyle=orthogonalEdgeStyle;rounded=0;orthogonalLoop=1;jettySize=auto;html=1;exitX=0;exitY=0.5;exitDx=0;exitDy=0;" parent="WIyWlLk6GJQsqaUBKTNV-1" source="uQtyzaT6FwS_6Y9mRP5b-52" target="uQtyzaT6FwS_6Y9mRP5b-11" edge="1">
          <mxGeometry relative="1" as="geometry">
            <mxPoint x="220" y="330" as="targetPoint" />
            <mxPoint x="180" y="850" as="sourcePoint" />
            <Array as="points">
              <mxPoint x="50" y="660" />
              <mxPoint x="50" y="290" />
            </Array>
          </mxGeometry>
        </mxCell>
        <mxCell id="uQtyzaT6FwS_6Y9mRP5b-11" value="게임 진행" style="rounded=0;whiteSpace=wrap;html=1;" parent="WIyWlLk6GJQsqaUBKTNV-1" vertex="1">
          <mxGeometry x="160" y="270" width="120" height="40" as="geometry" />
        </mxCell>
        <mxCell id="uQtyzaT6FwS_6Y9mRP5b-58" value="" style="edgeStyle=orthogonalEdgeStyle;rounded=0;orthogonalLoop=1;jettySize=auto;html=1;exitX=0.5;exitY=1;exitDx=0;exitDy=0;entryX=0.5;entryY=0;entryDx=0;entryDy=0;" parent="WIyWlLk6GJQsqaUBKTNV-1" source="uQtyzaT6FwS_6Y9mRP5b-1" target="hfx4j8dAEwIg-95dsfPo-68" edge="1">
          <mxGeometry relative="1" as="geometry">
            <mxPoint x="220" y="190" as="sourcePoint" />
            <mxPoint x="220" y="240" as="targetPoint" />
            <Array as="points">
              <mxPoint x="220" y="160" />
            </Array>
          </mxGeometry>
        </mxCell>
        <mxCell id="uQtyzaT6FwS_6Y9mRP5b-59" style="edgeStyle=orthogonalEdgeStyle;rounded=0;orthogonalLoop=1;jettySize=auto;html=1;exitX=0.5;exitY=1;exitDx=0;exitDy=0;entryX=0.5;entryY=0;entryDx=0;entryDy=0;" parent="WIyWlLk6GJQsqaUBKTNV-1" source="uQtyzaT6FwS_6Y9mRP5b-3" target="uQtyzaT6FwS_6Y9mRP5b-11" edge="1">
          <mxGeometry relative="1" as="geometry" />
        </mxCell>
        <mxCell id="uQtyzaT6FwS_6Y9mRP5b-3" value="선수 설정" style="rounded=0;whiteSpace=wrap;html=1;" parent="WIyWlLk6GJQsqaUBKTNV-1" vertex="1">
          <mxGeometry x="160" y="210" width="120" height="40" as="geometry" />
        </mxCell>
        <mxCell id="uQtyzaT6FwS_6Y9mRP5b-63" value="No" style="text;html=1;align=center;verticalAlign=middle;whiteSpace=wrap;rounded=0;" parent="WIyWlLk6GJQsqaUBKTNV-1" vertex="1">
          <mxGeometry x="290" y="460" width="60" height="30" as="geometry" />
        </mxCell>
        <mxCell id="uQtyzaT6FwS_6Y9mRP5b-67" value="Yes" style="text;html=1;align=center;verticalAlign=middle;whiteSpace=wrap;rounded=0;" parent="WIyWlLk6GJQsqaUBKTNV-1" vertex="1">
          <mxGeometry x="210" y="700" width="60" height="30" as="geometry" />
        </mxCell>
        <mxCell id="hfx4j8dAEwIg-95dsfPo-36" style="edgeStyle=orthogonalEdgeStyle;rounded=0;orthogonalLoop=1;jettySize=auto;html=1;exitX=0.5;exitY=1;exitDx=0;exitDy=0;" edge="1" parent="WIyWlLk6GJQsqaUBKTNV-1" source="hfx4j8dAEwIg-95dsfPo-65">
          <mxGeometry relative="1" as="geometry">
            <mxPoint x="700" y="240" as="targetPoint" />
          </mxGeometry>
        </mxCell>
        <mxCell id="hfx4j8dAEwIg-95dsfPo-38" style="edgeStyle=orthogonalEdgeStyle;rounded=0;orthogonalLoop=1;jettySize=auto;html=1;exitX=0.5;exitY=1;exitDx=0;exitDy=0;entryX=0.5;entryY=0;entryDx=0;entryDy=0;" edge="1" parent="WIyWlLk6GJQsqaUBKTNV-1" source="hfx4j8dAEwIg-95dsfPo-62" target="hfx4j8dAEwIg-95dsfPo-41">
          <mxGeometry relative="1" as="geometry" />
        </mxCell>
        <mxCell id="hfx4j8dAEwIg-95dsfPo-39" style="edgeStyle=orthogonalEdgeStyle;rounded=0;orthogonalLoop=1;jettySize=auto;html=1;exitX=1;exitY=0.5;exitDx=0;exitDy=0;entryX=0;entryY=0.5;entryDx=0;entryDy=0;" edge="1" parent="WIyWlLk6GJQsqaUBKTNV-1" source="hfx4j8dAEwIg-95dsfPo-41" target="hfx4j8dAEwIg-95dsfPo-43">
          <mxGeometry relative="1" as="geometry">
            <mxPoint x="840" y="500" as="targetPoint" />
          </mxGeometry>
        </mxCell>
        <mxCell id="hfx4j8dAEwIg-95dsfPo-40" style="edgeStyle=orthogonalEdgeStyle;rounded=0;orthogonalLoop=1;jettySize=auto;html=1;exitX=0.5;exitY=1;exitDx=0;exitDy=0;entryX=0.5;entryY=0;entryDx=0;entryDy=0;" edge="1" parent="WIyWlLk6GJQsqaUBKTNV-1" source="hfx4j8dAEwIg-95dsfPo-41" target="hfx4j8dAEwIg-95dsfPo-51">
          <mxGeometry relative="1" as="geometry" />
        </mxCell>
        <mxCell id="hfx4j8dAEwIg-95dsfPo-41" value="점수&amp;nbsp;&lt;span style=&quot;background-color: initial;&quot;&gt;듀스&amp;nbsp;&lt;/span&gt;&lt;div&gt;여부&lt;/div&gt;" style="rhombus;whiteSpace=wrap;html=1;" vertex="1" parent="WIyWlLk6GJQsqaUBKTNV-1">
          <mxGeometry x="660" y="330" width="80" height="80" as="geometry" />
        </mxCell>
        <mxCell id="hfx4j8dAEwIg-95dsfPo-42" style="edgeStyle=orthogonalEdgeStyle;rounded=0;orthogonalLoop=1;jettySize=auto;html=1;entryX=1;entryY=0.5;entryDx=0;entryDy=0;exitX=1;exitY=0.5;exitDx=0;exitDy=0;" edge="1" parent="WIyWlLk6GJQsqaUBKTNV-1" source="hfx4j8dAEwIg-95dsfPo-43" target="hfx4j8dAEwIg-95dsfPo-46">
          <mxGeometry relative="1" as="geometry">
            <mxPoint x="910" y="399.9999999999999" as="sourcePoint" />
            <mxPoint x="880" y="515" as="targetPoint" />
            <Array as="points">
              <mxPoint x="950" y="370" />
              <mxPoint x="950" y="460" />
            </Array>
          </mxGeometry>
        </mxCell>
        <mxCell id="hfx4j8dAEwIg-95dsfPo-43" value="듀스에서 게임 진행" style="rounded=0;whiteSpace=wrap;html=1;" vertex="1" parent="WIyWlLk6GJQsqaUBKTNV-1">
          <mxGeometry x="790" y="350" width="120" height="40" as="geometry" />
        </mxCell>
        <mxCell id="hfx4j8dAEwIg-95dsfPo-44" style="edgeStyle=orthogonalEdgeStyle;rounded=0;orthogonalLoop=1;jettySize=auto;html=1;exitX=0;exitY=0.5;exitDx=0;exitDy=0;entryX=1;entryY=0.5;entryDx=0;entryDy=0;" edge="1" parent="WIyWlLk6GJQsqaUBKTNV-1" source="hfx4j8dAEwIg-95dsfPo-46" target="hfx4j8dAEwIg-95dsfPo-51">
          <mxGeometry relative="1" as="geometry" />
        </mxCell>
        <mxCell id="hfx4j8dAEwIg-95dsfPo-45" value="" style="edgeStyle=orthogonalEdgeStyle;rounded=0;orthogonalLoop=1;jettySize=auto;html=1;" edge="1" parent="WIyWlLk6GJQsqaUBKTNV-1" source="hfx4j8dAEwIg-95dsfPo-46" target="hfx4j8dAEwIg-95dsfPo-43">
          <mxGeometry relative="1" as="geometry" />
        </mxCell>
        <mxCell id="hfx4j8dAEwIg-95dsfPo-46" value="점수&amp;nbsp;&lt;span style=&quot;background-color: initial;&quot;&gt;듀스&amp;nbsp;&lt;/span&gt;&lt;div&gt;여부&lt;/div&gt;" style="rhombus;whiteSpace=wrap;html=1;" vertex="1" parent="WIyWlLk6GJQsqaUBKTNV-1">
          <mxGeometry x="812.5" y="420" width="75" height="80" as="geometry" />
        </mxCell>
        <mxCell id="hfx4j8dAEwIg-95dsfPo-47" value="Yes" style="text;html=1;align=center;verticalAlign=middle;whiteSpace=wrap;rounded=0;" vertex="1" parent="WIyWlLk6GJQsqaUBKTNV-1">
          <mxGeometry x="834" y="390" width="60" height="30" as="geometry" />
        </mxCell>
        <mxCell id="hfx4j8dAEwIg-95dsfPo-48" value="Yes" style="text;html=1;align=center;verticalAlign=middle;whiteSpace=wrap;rounded=0;" vertex="1" parent="WIyWlLk6GJQsqaUBKTNV-1">
          <mxGeometry x="730" y="370" width="60" height="30" as="geometry" />
        </mxCell>
        <mxCell id="hfx4j8dAEwIg-95dsfPo-49" value="No" style="text;html=1;align=center;verticalAlign=middle;whiteSpace=wrap;rounded=0;" vertex="1" parent="WIyWlLk6GJQsqaUBKTNV-1">
          <mxGeometry x="690" y="400" width="60" height="30" as="geometry" />
        </mxCell>
        <mxCell id="hfx4j8dAEwIg-95dsfPo-133" style="edgeStyle=orthogonalEdgeStyle;rounded=0;orthogonalLoop=1;jettySize=auto;html=1;exitX=0.5;exitY=1;exitDx=0;exitDy=0;" edge="1" parent="WIyWlLk6GJQsqaUBKTNV-1" source="hfx4j8dAEwIg-95dsfPo-51" target="hfx4j8dAEwIg-95dsfPo-105">
          <mxGeometry relative="1" as="geometry" />
        </mxCell>
        <mxCell id="hfx4j8dAEwIg-95dsfPo-51" value="게임 종료" style="rounded=0;whiteSpace=wrap;html=1;" vertex="1" parent="WIyWlLk6GJQsqaUBKTNV-1">
          <mxGeometry x="640" y="440" width="120" height="40" as="geometry" />
        </mxCell>
        <mxCell id="hfx4j8dAEwIg-95dsfPo-52" value="Yes" style="text;html=1;align=center;verticalAlign=middle;whiteSpace=wrap;rounded=0;" vertex="1" parent="WIyWlLk6GJQsqaUBKTNV-1">
          <mxGeometry x="700" y="600" width="60" height="30" as="geometry" />
        </mxCell>
        <mxCell id="hfx4j8dAEwIg-95dsfPo-93" style="edgeStyle=orthogonalEdgeStyle;rounded=0;orthogonalLoop=1;jettySize=auto;html=1;exitX=0.5;exitY=1;exitDx=0;exitDy=0;entryX=0.5;entryY=0;entryDx=0;entryDy=0;" edge="1" parent="WIyWlLk6GJQsqaUBKTNV-1" source="hfx4j8dAEwIg-95dsfPo-55" target="hfx4j8dAEwIg-95dsfPo-92">
          <mxGeometry relative="1" as="geometry" />
        </mxCell>
        <mxCell id="hfx4j8dAEwIg-95dsfPo-112" style="edgeStyle=orthogonalEdgeStyle;rounded=0;orthogonalLoop=1;jettySize=auto;html=1;exitX=1;exitY=0.5;exitDx=0;exitDy=0;entryX=0.5;entryY=1;entryDx=0;entryDy=0;" edge="1" parent="WIyWlLk6GJQsqaUBKTNV-1" source="hfx4j8dAEwIg-95dsfPo-55" target="hfx4j8dAEwIg-95dsfPo-134">
          <mxGeometry relative="1" as="geometry" />
        </mxCell>
        <mxCell id="hfx4j8dAEwIg-95dsfPo-55" value="6:6 여부" style="rhombus;whiteSpace=wrap;html=1;" vertex="1" parent="WIyWlLk6GJQsqaUBKTNV-1">
          <mxGeometry x="660" y="630" width="80" height="80" as="geometry" />
        </mxCell>
        <mxCell id="hfx4j8dAEwIg-95dsfPo-56" value="No" style="text;html=1;align=center;verticalAlign=middle;whiteSpace=wrap;rounded=0;" vertex="1" parent="WIyWlLk6GJQsqaUBKTNV-1">
          <mxGeometry x="1050" y="540" width="60" height="30" as="geometry" />
        </mxCell>
        <mxCell id="hfx4j8dAEwIg-95dsfPo-58" style="edgeStyle=orthogonalEdgeStyle;rounded=0;orthogonalLoop=1;jettySize=auto;html=1;exitX=0.5;exitY=1;exitDx=0;exitDy=0;" edge="1" parent="WIyWlLk6GJQsqaUBKTNV-1" source="hfx4j8dAEwIg-95dsfPo-59" target="hfx4j8dAEwIg-95dsfPo-60">
          <mxGeometry relative="1" as="geometry" />
        </mxCell>
        <mxCell id="hfx4j8dAEwIg-95dsfPo-91" style="edgeStyle=orthogonalEdgeStyle;rounded=0;orthogonalLoop=1;jettySize=auto;html=1;exitX=1;exitY=0.5;exitDx=0;exitDy=0;entryX=1;entryY=0.5;entryDx=0;entryDy=0;" edge="1" parent="WIyWlLk6GJQsqaUBKTNV-1" source="hfx4j8dAEwIg-95dsfPo-59" target="hfx4j8dAEwIg-95dsfPo-62">
          <mxGeometry relative="1" as="geometry">
            <Array as="points">
              <mxPoint x="1130" y="700" />
              <mxPoint x="1130" y="290" />
            </Array>
          </mxGeometry>
        </mxCell>
        <mxCell id="hfx4j8dAEwIg-95dsfPo-59" value="세트&amp;nbsp;&lt;span style=&quot;background-color: initial;&quot;&gt;과반&amp;nbsp;&lt;/span&gt;&lt;div&gt;여부&lt;/div&gt;" style="rhombus;whiteSpace=wrap;html=1;" vertex="1" parent="WIyWlLk6GJQsqaUBKTNV-1">
          <mxGeometry x="980" y="480" width="80" height="80" as="geometry" />
        </mxCell>
        <mxCell id="hfx4j8dAEwIg-95dsfPo-60" value="끝" style="ellipse;whiteSpace=wrap;html=1;" vertex="1" parent="WIyWlLk6GJQsqaUBKTNV-1">
          <mxGeometry x="960" y="760" width="120" height="80" as="geometry" />
        </mxCell>
        <mxCell id="hfx4j8dAEwIg-95dsfPo-62" value="게임 진행" style="rounded=0;whiteSpace=wrap;html=1;" vertex="1" parent="WIyWlLk6GJQsqaUBKTNV-1">
          <mxGeometry x="640" y="270" width="120" height="40" as="geometry" />
        </mxCell>
        <mxCell id="hfx4j8dAEwIg-95dsfPo-64" style="edgeStyle=orthogonalEdgeStyle;rounded=0;orthogonalLoop=1;jettySize=auto;html=1;exitX=0.5;exitY=1;exitDx=0;exitDy=0;entryX=0.5;entryY=0;entryDx=0;entryDy=0;" edge="1" parent="WIyWlLk6GJQsqaUBKTNV-1" source="hfx4j8dAEwIg-95dsfPo-65" target="hfx4j8dAEwIg-95dsfPo-62">
          <mxGeometry relative="1" as="geometry" />
        </mxCell>
        <mxCell id="hfx4j8dAEwIg-95dsfPo-65" value="선수 설정" style="rounded=0;whiteSpace=wrap;html=1;" vertex="1" parent="WIyWlLk6GJQsqaUBKTNV-1">
          <mxGeometry x="640" y="210" width="120" height="40" as="geometry" />
        </mxCell>
        <mxCell id="hfx4j8dAEwIg-95dsfPo-66" value="No" style="text;html=1;align=center;verticalAlign=middle;whiteSpace=wrap;rounded=0;" vertex="1" parent="WIyWlLk6GJQsqaUBKTNV-1">
          <mxGeometry x="770" y="460" width="60" height="30" as="geometry" />
        </mxCell>
        <mxCell id="hfx4j8dAEwIg-95dsfPo-70" style="edgeStyle=orthogonalEdgeStyle;rounded=0;orthogonalLoop=1;jettySize=auto;html=1;exitX=0.5;exitY=1;exitDx=0;exitDy=0;entryX=0.5;entryY=0;entryDx=0;entryDy=0;" edge="1" parent="WIyWlLk6GJQsqaUBKTNV-1" source="hfx4j8dAEwIg-95dsfPo-68" target="uQtyzaT6FwS_6Y9mRP5b-3">
          <mxGeometry relative="1" as="geometry" />
        </mxCell>
        <mxCell id="hfx4j8dAEwIg-95dsfPo-68" value="타이 브레이크 설정" style="rounded=0;whiteSpace=wrap;html=1;" vertex="1" parent="WIyWlLk6GJQsqaUBKTNV-1">
          <mxGeometry x="160" y="155" width="120" height="30" as="geometry" />
        </mxCell>
        <mxCell id="hfx4j8dAEwIg-95dsfPo-75" style="edgeStyle=orthogonalEdgeStyle;rounded=0;orthogonalLoop=1;jettySize=auto;html=1;exitX=0.5;exitY=1;exitDx=0;exitDy=0;entryX=0.5;entryY=0;entryDx=0;entryDy=0;" edge="1" parent="WIyWlLk6GJQsqaUBKTNV-1" source="hfx4j8dAEwIg-95dsfPo-71" target="hfx4j8dAEwIg-95dsfPo-73">
          <mxGeometry relative="1" as="geometry" />
        </mxCell>
        <mxCell id="hfx4j8dAEwIg-95dsfPo-71" value="시작" style="ellipse;whiteSpace=wrap;html=1;" vertex="1" parent="WIyWlLk6GJQsqaUBKTNV-1">
          <mxGeometry x="655" y="20" width="90" height="60" as="geometry" />
        </mxCell>
        <mxCell id="hfx4j8dAEwIg-95dsfPo-77" style="edgeStyle=orthogonalEdgeStyle;rounded=0;orthogonalLoop=1;jettySize=auto;html=1;exitX=0.5;exitY=1;exitDx=0;exitDy=0;" edge="1" parent="WIyWlLk6GJQsqaUBKTNV-1" source="hfx4j8dAEwIg-95dsfPo-73" target="hfx4j8dAEwIg-95dsfPo-76">
          <mxGeometry relative="1" as="geometry" />
        </mxCell>
        <mxCell id="hfx4j8dAEwIg-95dsfPo-73" value="3 / 5 세트 설정" style="rounded=0;whiteSpace=wrap;html=1;" vertex="1" parent="WIyWlLk6GJQsqaUBKTNV-1">
          <mxGeometry x="640" y="100" width="120" height="40" as="geometry" />
        </mxCell>
        <mxCell id="hfx4j8dAEwIg-95dsfPo-78" style="edgeStyle=orthogonalEdgeStyle;rounded=0;orthogonalLoop=1;jettySize=auto;html=1;exitX=0.5;exitY=1;exitDx=0;exitDy=0;entryX=0.5;entryY=0;entryDx=0;entryDy=0;" edge="1" parent="WIyWlLk6GJQsqaUBKTNV-1" source="hfx4j8dAEwIg-95dsfPo-76" target="hfx4j8dAEwIg-95dsfPo-65">
          <mxGeometry relative="1" as="geometry" />
        </mxCell>
        <mxCell id="hfx4j8dAEwIg-95dsfPo-76" value="타이 브레이크 설정" style="rounded=0;whiteSpace=wrap;html=1;" vertex="1" parent="WIyWlLk6GJQsqaUBKTNV-1">
          <mxGeometry x="640" y="155" width="120" height="30" as="geometry" />
        </mxCell>
        <mxCell id="hfx4j8dAEwIg-95dsfPo-96" style="edgeStyle=orthogonalEdgeStyle;rounded=0;orthogonalLoop=1;jettySize=auto;html=1;exitX=1;exitY=0.5;exitDx=0;exitDy=0;entryX=0;entryY=1;entryDx=0;entryDy=0;" edge="1" parent="WIyWlLk6GJQsqaUBKTNV-1" source="hfx4j8dAEwIg-95dsfPo-92" target="hfx4j8dAEwIg-95dsfPo-59">
          <mxGeometry relative="1" as="geometry">
            <mxPoint x="920" y="610" as="targetPoint" />
            <Array as="points">
              <mxPoint x="760" y="790" />
              <mxPoint x="930" y="790" />
              <mxPoint x="930" y="540" />
            </Array>
          </mxGeometry>
        </mxCell>
        <mxCell id="hfx4j8dAEwIg-95dsfPo-92" value="타이 브레이크&lt;br&gt;게임 진행" style="rounded=0;whiteSpace=wrap;html=1;" vertex="1" parent="WIyWlLk6GJQsqaUBKTNV-1">
          <mxGeometry x="640" y="755" width="120" height="60" as="geometry" />
        </mxCell>
        <mxCell id="hfx4j8dAEwIg-95dsfPo-100" value="Yes" style="text;html=1;align=center;verticalAlign=middle;whiteSpace=wrap;rounded=0;" vertex="1" parent="WIyWlLk6GJQsqaUBKTNV-1">
          <mxGeometry x="1010" y="725" width="60" height="30" as="geometry" />
        </mxCell>
        <mxCell id="hfx4j8dAEwIg-95dsfPo-107" style="edgeStyle=orthogonalEdgeStyle;rounded=0;orthogonalLoop=1;jettySize=auto;html=1;exitX=0;exitY=0.5;exitDx=0;exitDy=0;entryX=0;entryY=0.5;entryDx=0;entryDy=0;" edge="1" parent="WIyWlLk6GJQsqaUBKTNV-1" source="hfx4j8dAEwIg-95dsfPo-105" target="hfx4j8dAEwIg-95dsfPo-62">
          <mxGeometry relative="1" as="geometry">
            <Array as="points">
              <mxPoint x="590" y="545" />
              <mxPoint x="590" y="290" />
            </Array>
          </mxGeometry>
        </mxCell>
        <mxCell id="hfx4j8dAEwIg-95dsfPo-109" style="edgeStyle=orthogonalEdgeStyle;rounded=0;orthogonalLoop=1;jettySize=auto;html=1;exitX=0.5;exitY=1;exitDx=0;exitDy=0;entryX=0.5;entryY=0;entryDx=0;entryDy=0;" edge="1" parent="WIyWlLk6GJQsqaUBKTNV-1" source="hfx4j8dAEwIg-95dsfPo-105" target="hfx4j8dAEwIg-95dsfPo-55">
          <mxGeometry relative="1" as="geometry" />
        </mxCell>
        <mxCell id="hfx4j8dAEwIg-95dsfPo-105" value="한 팀의&lt;div&gt;6게임&amp;nbsp;&lt;/div&gt;&lt;div&gt;도달 여부&lt;/div&gt;" style="rhombus;whiteSpace=wrap;html=1;" vertex="1" parent="WIyWlLk6GJQsqaUBKTNV-1">
          <mxGeometry x="660" y="505" width="80" height="80" as="geometry" />
        </mxCell>
        <mxCell id="hfx4j8dAEwIg-95dsfPo-108" value="No" style="text;html=1;align=center;verticalAlign=middle;whiteSpace=wrap;rounded=0;" vertex="1" parent="WIyWlLk6GJQsqaUBKTNV-1">
          <mxGeometry x="595" y="540" width="60" height="30" as="geometry" />
        </mxCell>
        <mxCell id="hfx4j8dAEwIg-95dsfPo-110" value="Yes" style="text;html=1;align=center;verticalAlign=middle;whiteSpace=wrap;rounded=0;" vertex="1" parent="WIyWlLk6GJQsqaUBKTNV-1">
          <mxGeometry x="700" y="710" width="60" height="30" as="geometry" />
        </mxCell>
        <mxCell id="hfx4j8dAEwIg-95dsfPo-111" value="No" style="text;html=1;align=center;verticalAlign=middle;whiteSpace=wrap;rounded=0;" vertex="1" parent="WIyWlLk6GJQsqaUBKTNV-1">
          <mxGeometry x="760" y="790" width="60" height="25" as="geometry" />
        </mxCell>
        <mxCell id="hfx4j8dAEwIg-95dsfPo-132" style="edgeStyle=orthogonalEdgeStyle;rounded=0;orthogonalLoop=1;jettySize=auto;html=1;exitX=0.5;exitY=1;exitDx=0;exitDy=0;" edge="1" parent="WIyWlLk6GJQsqaUBKTNV-1" source="hfx4j8dAEwIg-95dsfPo-52" target="hfx4j8dAEwIg-95dsfPo-52">
          <mxGeometry relative="1" as="geometry" />
        </mxCell>
        <mxCell id="hfx4j8dAEwIg-95dsfPo-135" style="edgeStyle=orthogonalEdgeStyle;rounded=0;orthogonalLoop=1;jettySize=auto;html=1;exitX=0.5;exitY=0;exitDx=0;exitDy=0;entryX=0;entryY=0.5;entryDx=0;entryDy=0;" edge="1" parent="WIyWlLk6GJQsqaUBKTNV-1" source="hfx4j8dAEwIg-95dsfPo-134" target="hfx4j8dAEwIg-95dsfPo-59">
          <mxGeometry relative="1" as="geometry" />
        </mxCell>
        <mxCell id="hfx4j8dAEwIg-95dsfPo-137" style="edgeStyle=orthogonalEdgeStyle;rounded=0;orthogonalLoop=1;jettySize=auto;html=1;exitX=0;exitY=0.5;exitDx=0;exitDy=0;entryX=0;entryY=0.5;entryDx=0;entryDy=0;" edge="1" parent="WIyWlLk6GJQsqaUBKTNV-1" source="hfx4j8dAEwIg-95dsfPo-134" target="hfx4j8dAEwIg-95dsfPo-62">
          <mxGeometry relative="1" as="geometry">
            <Array as="points">
              <mxPoint x="520" y="590" />
              <mxPoint x="520" y="290" />
            </Array>
          </mxGeometry>
        </mxCell>
        <mxCell id="hfx4j8dAEwIg-95dsfPo-134" value="예외 여부" style="rhombus;whiteSpace=wrap;html=1;" vertex="1" parent="WIyWlLk6GJQsqaUBKTNV-1">
          <mxGeometry x="790" y="550" width="80" height="80" as="geometry" />
        </mxCell>
        <mxCell id="hfx4j8dAEwIg-95dsfPo-136" value="No" style="text;html=1;align=center;verticalAlign=middle;whiteSpace=wrap;rounded=0;" vertex="1" parent="WIyWlLk6GJQsqaUBKTNV-1">
          <mxGeometry x="830" y="525" width="60" height="25" as="geometry" />
        </mxCell>
        <mxCell id="hfx4j8dAEwIg-95dsfPo-138" value="Yes" style="text;html=1;align=center;verticalAlign=middle;whiteSpace=wrap;rounded=0;" vertex="1" parent="WIyWlLk6GJQsqaUBKTNV-1">
          <mxGeometry x="595" y="590" width="60" height="30" as="geometry" />
        </mxCell>
        <mxCell id="hfx4j8dAEwIg-95dsfPo-142" style="edgeStyle=orthogonalEdgeStyle;rounded=0;orthogonalLoop=1;jettySize=auto;html=1;exitX=0.5;exitY=1;exitDx=0;exitDy=0;" edge="1" parent="WIyWlLk6GJQsqaUBKTNV-1" source="hfx4j8dAEwIg-95dsfPo-136" target="hfx4j8dAEwIg-95dsfPo-136">
          <mxGeometry relative="1" as="geometry" />
        </mxCell>
        <mxCell id="hfx4j8dAEwIg-95dsfPo-144" value="No" style="text;html=1;align=center;verticalAlign=middle;whiteSpace=wrap;rounded=0;" vertex="1" parent="WIyWlLk6GJQsqaUBKTNV-1">
          <mxGeometry x="740" y="675" width="60" height="25" as="geometry" />
        </mxCell>
      </root>
    </mxGraphModel>
  </diagram>
</mxfile>
